PathFileType	4	(X/Y/Z)	T1_P1_Vision_Movement_4_0-662.trc
DataRate	CameraRate	NumFrames	NumMarkers	Units	OrigDataRate	OrigDataStartFrame	OrigNumFrames
60	60	5	27	m	60	248	662
Frame#	Time	RHip			RKnee			RAnkle			RBigToe			RSmallToe			RHeel			LHip			LKnee			LAnkle			LBigToe			LSmallToe			LHeel			Neck			Head			Nose			RShoulder			RElbow			RWrist			RThumb			RIndex			RPinky			LShoulder			LElbow			LWrist			LThumb			LIndex			LPinky		
		X1	Y1	Z1	X2	Y2	Z2	X3	Y3	Z3	X4	Y4	Z4	X5	Y5	Z5	X6	Y6	Z6	X7	Y7	Z7	X8	Y8	Z8	X9	Y9	Z9	X10	Y10	Z10	X11	Y11	Z11	X12	Y12	Z12	X13	Y13	Z13	X14	Y14	Z14	X15	Y15	Z15	X16	Y16	Z16	X17	Y17	Z17	X18	Y18	Z18	X19	Y19	Z19	X20	Y20	Z20	X21	Y21	Z21	X22	Y22	Z22	X23	Y23	Z23	X24	Y24	Z24	X25	Y25	Z25	X26	Y26	Z26	X27	Y27	Z27
249	4.15	-132.37969113235945	3984.251839540383	-662.8729572262856	234.37743095945066	4076.5088412653226	-662.3467170264051	592.8371406001866	4258.1371908281635	-681.4744502897681	682.9644996230157	4200.268212748882	-651.4795950613933	672.9599679756927	4157.885794726381	-701.1110514226802	632.0275806510772	4310.179869780852	-695.9984038372734	-148.21017799291093	4049.6328115561478	-483.42320386190323	203.9096787296848	4190.84593328351	-495.57154351299346	559.1938033324146	4334.454562742197	-514.0818871338327	637.2169827398735	4215.32305791526	-400.6860037391971	609.0924683243242	4277.382662179541	-378.34363688254007	606.1211558648649	4374.967289972752	-537.9991486377778	-741.9039042963747	3898.435498344559	-587.6083465521426	-970.8209238731304	3725.3123961071447	-496.21984271560115	-825.2958717003742	3712.8669356577225	-461.7600265024454	-633.3127301410476	3805.7478937231067	-710.1021438073317	-416.9721907500176	3645.5426474804353	-729.8217959014902	-581.4951260538023	3557.4282231933475	-631.2344324329371	-686.5246896917934	3536.453830806028	-568.5579336635623	-698.9898622523659	3494.955866585283	-542.1658703990609	-672.0734116241647	3503.7823160103326	-588.6812489505734	-679.1495737658171	4016.6866021373507	-464.67057040928194	-418.12743278237394	4052.107750619493	-388.4642568792293	-159.77815621704408	4102.03493572637	-349.576658612767	-37.25069764376041	4138.429179174761	-368.1710431702303	2.12863901716781	4133.5858928426505	-337.018499775246	-21.77276678600266	4182.237620227296	-333.11122933576394
250	4.166666666666667	-137.09986312248628	3951.7379007564637	-655.1690145692046	231.75875705046352	4054.9268493308077	-646.436975134197	598.7610648965597	4262.569261690947	-683.8023672928438	682.9124827181982	4201.021239909081	-651.5846974759031	667.7049362157106	4135.520105685805	-684.6305394421263	638.0563325948023	4314.893624769551	-698.3153742191183	-148.08616198599168	4049.268594452139	-483.27986975562993	203.9621374917428	4190.727291741757	-495.5120048177634	552.9676642276139	4331.185598258677	-515.0083422180891	637.0335069715481	4215.0936925712185	-400.58006292584383	608.7789118967844	4277.315496245131	-378.3391601646829	606.2253894866284	4375.177188433424	-538.4278106893051	-741.8464621400734	3898.1607573038946	-587.6242034140898	-970.8438816089481	3725.2102332789295	-496.1383849863383	-825.3106155195492	3712.7947915182845	-461.80071891558333	-633.8279387245472	3805.414977858738	-710.405656579405	-419.9352716382164	3672.296864980177	-738.3128613986066	-601.3393260414606	3550.7212365383098	-630.3296565045727	-688.661553286701	3549.7734488116275	-580.1925377882993	-711.5177914909649	3518.070664347665	-554.9808556870698	-680.4029795305581	3501.089507758987	-589.2582155196067	-673.8460546262581	4020.2743515046227	-465.8312671625014	-418.03917379599574	4051.9062421161925	-388.30219395588546	-153.99957710179424	4104.3390140357915	-349.0369475666286	-36.16377267517768	4139.469482680179	-367.5904884945989	2.3438233637794097	4132.61361309342	-336.80705885083125	-15.509008558380213	4155.838334283142	-327.873873270317
251	4.183333333333334	-131.50647125277047	3954.2508408313515	-655.0010533981925	232.05223858004857	4055.44559485746	-646.6080569088352	598.9343272225711	4262.434117833664	-683.8488481464063	677.8289169121506	4167.761554505775	-643.5022498539548	660.6839679153495	4131.1657325002825	-684.8874721953607	638.2342636828513	4314.839229079938	-698.4144296632619	-147.8378269724314	4049.346779664479	-483.4027472327678	204.21141441826668	4190.578232418009	-495.4987104636934	559.4200738017365	4334.73083738914	-514.2556893297094	637.0170151064666	4215.164274856915	-400.46581617333425	609.1633558816776	4277.748992284812	-378.5739449723006	607.1071862979563	4375.692896355168	-538.5806693958865	-741.8414309174575	3897.777896304996	-587.3911767351501	-970.9821187027208	3725.3780916251876	-496.12529454486196	-825.2539798562024	3712.9637081142073	-461.76692219216307	-629.7408198759773	3777.6858735203964	-702.7049176772173	-421.00598025901303	3690.313481266713	-754.0210323707242	-593.5912275361038	3572.392604544325	-646.3434821309932	-690.6383140753337	3564.4090448950824	-592.9563677615025	-703.9151510514866	3522.3507729237244	-556.9633776433351	-679.3210314210819	3517.4884467857473	-601.7760725382835	-679.0110652760246	4016.1790504433175	-464.3648830482105	-418.033443909703	4052.181966048185	-388.5282615001663	-159.56926696233162	4101.930510297511	-349.6193475185335	-36.46149711137123	4138.474422520889	-367.32161133713134	-2.3122765552458384	4131.760534375619	-336.9045107871187	-21.395421797620532	4153.061373176464	-328.5229768231947
252	4.2	-131.48739424043526	3954.7763082000697	-655.2578547320452	236.06253769879947	4107.696793460383	-670.387770894818	594.1366827925398	4260.584167939631	-689.0176798512776	677.7617603454407	4167.21830908644	-643.4008086608717	667.3150606697393	4134.175248299319	-684.27702002713	631.9550933641551	4310.877239536694	-696.5285588429027	-147.90174105537403	4049.3383729188204	-483.45950048753934	204.03058421863597	4191.124934883242	-495.69761742408497	563.0828616813368	4366.3238977289075	-520.565015874085	636.8549925961183	4214.547313516352	-400.43239951395054	604.7716234719113	4245.315299702076	-372.50503934906266	610.8252791459239	4408.5601859867475	-545.3482061946336	-741.8107671765816	3897.8172046487275	-587.4015738836179	-970.8834321200612	3725.329302659968	-496.19168385721815	-825.190610339336	3712.820006546592	-461.7968847591278	-628.9080392052923	3806.844802026638	-710.1263683207505	-417.8142317018703	3663.5439102701494	-751.8404612585675	-593.7806303561007	3571.8716766570287	-646.0523670676695	-694.6477067222236	3548.2423636882477	-580.7720614121743	-709.7906440830853	3495.1648161758085	-549.9793439055585	-679.2652649392635	3516.543498395413	-601.6254202212773	-679.0254151823967	4016.293471918798	-464.4170287478168	-418.1129716327062	4052.241490508591	-388.5583042497738	-159.7526361357385	4101.274193150732	-349.4663191304551	-42.80249728072755	4113.929576505711	-353.24282385397663	2.248946783404184	4131.671732247993	-336.3579649058016	-22.56190782489072	4131.145636173392	-314.20357133358544
253	4.216666666666667	-125.8553268665016	3954.827357502481	-654.593739818663	233.51698208819693	4085.8521752668403	-654.3160362122244	600.6119126951406	4265.089513071161	-691.582661306887	684.0227332015743	4171.625289323685	-643.2100608685527	674.3625985099347	4137.701649030264	-683.5631795256993	645.033291935349	4318.8521946691135	-698.5546199649856	-147.89534336499116	4049.070714708244	-483.27100342083065	204.14880348876173	4190.720895527358	-495.5980523977376	559.7778722088508	4334.738495011901	-514.6362063215241	637.2612117568863	4215.118886671482	-400.6734290246497	604.9393708740711	4245.473463852307	-372.49324901475734	608.0390800983896	4376.107550639812	-544.8699292044753	-741.7579094431227	3897.5593273461914	-587.371281745927	-971.1223489652659	3725.661997305756	-496.2628635050217	-825.1976700025366	3712.561795092955	-461.5769442457539	-628.7964219652504	3806.647419158746	-709.9648026252554	-422.8118820414343	3660.7944112352693	-751.8147400063136	-599.6424525680769	3542.0912231681373	-637.0058035706052	-689.5998098473839	3534.6776180495676	-567.9823720301524	-712.694310777083	3502.228909456137	-542.1883598478797	-680.1757439736887	3504.0581149234567	-599.4755162117115	-679.2049023684186	4016.4229750165773	-464.5855678270335	-412.7541732788735	4053.5155548225835	-388.52739618434214	-154.68183683905107	4102.248531859458	-349.34322448215715	-32.11597708523954	4138.3186948097045	-366.8368500136178	2.0908836628873835	4132.177768427053	-336.7182148789404	-16.718558117929373	4154.2848679778845	-328.7941721051987
